  0
SECTION
  2
BLOCKS
  0
ENDSEC
  0
SECTION
  2
ENTITIES
  0
LINE
  8
0
 10
89.7553
 20
60.5451
 11
89.5677
 21
61.0337
  0
LINE
  8
0
 10
89.5677
 20
61.0337
 11
89.3301
 21
61.5
  0
LINE
  8
0
 10
89.3301
 20
61.5
 11
89.0451
 21
61.9389
  0
LINE
  8
0
 10
89.0451
 20
61.9389
 11
88.7157
 21
62.3456
  0
LINE
  8
0
 10
88.7157
 20
62.3456
 11
88.3456
 21
62.7157
  0
LINE
  8
0
 10
88.3456
 20
62.7157
 11
87.9389
 21
63.0451
  0
LINE
  8
0
 10
87.9389
 20
63.0451
 11
87.5
 21
63.3301
  0
LINE
  8
0
 10
87.5
 20
63.3301
 11
87.0337
 21
63.5677
  0
LINE
  8
0
 10
87.0337
 20
63.5677
 11
86.5451
 21
63.7553
  0
LINE
  8
0
 10
86.5451
 20
63.7553
 11
86.0396
 21
63.8907
  0
LINE
  8
0
 10
86.0396
 20
63.8907
 11
85.5226
 21
63.9726
  0
LINE
  8
0
 10
85.5226
 20
63.9726
 11
85
 21
64
  0
LINE
  8
0
 10
85
 20
64
 11
5
 21
64
  0
LINE
  8
0
 10
5
 20
64
 11
4.47737
 21
63.9726
  0
LINE
  8
0
 10
4.47737
 20
63.9726
 11
3.96045
 21
63.8907
  0
LINE
  8
0
 10
3.96045
 20
63.8907
 11
3.45493
 21
63.7553
  0
LINE
  8
0
 10
3.45493
 20
63.7553
 11
2.96632
 21
63.5677
  0
LINE
  8
0
 10
2.96632
 20
63.5677
 11
2.5
 21
63.3301
  0
LINE
  8
0
 10
2.5
 20
63.3301
 11
2.06108
 21
63.0451
  0
LINE
  8
0
 10
2.06108
 20
63.0451
 11
1.65436
 21
62.7157
  0
LINE
  8
0
 10
1.65436
 20
62.7157
 11
1.28429
 21
62.3456
  0
LINE
  8
0
 10
1.28429
 20
62.3456
 11
0.954926
 21
61.9389
  0
LINE
  8
0
 10
0.954926
 20
61.9389
 11
0.669876
 21
61.5
  0
LINE
  8
0
 10
0.669876
 20
61.5
 11
0.432281
 21
61.0337
  0
LINE
  8
0
 10
0.432281
 20
61.0337
 11
0.24472
 21
60.5451
  0
LINE
  8
0
 10
0.24472
 20
60.5451
 11
0.109268
 21
60.0396
  0
LINE
  8
0
 10
0.109268
 20
60.0396
 11
0.0274048
 21
59.5226
  0
LINE
  8
0
 10
0.0274048
 20
59.5226
 11
0
 21
59
  0
LINE
  8
0
 10
0
 20
59
 11
0
 21
5
  0
LINE
  8
0
 10
0
 20
5
 11
0.0274048
 21
4.47737
  0
LINE
  8
0
 10
0.0274048
 20
4.47737
 11
0.109268
 21
3.96045
  0
LINE
  8
0
 10
0.109268
 20
3.96045
 11
0.24472
 21
3.45493
  0
LINE
  8
0
 10
0.24472
 20
3.45493
 11
0.432281
 21
2.96632
  0
LINE
  8
0
 10
0.432281
 20
2.96632
 11
0.669876
 21
2.5
  0
LINE
  8
0
 10
0.669876
 20
2.5
 11
0.954926
 21
2.06108
  0
LINE
  8
0
 10
0.954926
 20
2.06108
 11
1.28429
 21
1.65436
  0
LINE
  8
0
 10
1.28429
 20
1.65436
 11
1.65436
 21
1.28429
  0
LINE
  8
0
 10
1.65436
 20
1.28429
 11
2.06108
 21
0.954926
  0
LINE
  8
0
 10
2.06108
 20
0.954926
 11
2.5
 21
0.669876
  0
LINE
  8
0
 10
2.5
 20
0.669876
 11
2.96632
 21
0.432281
  0
LINE
  8
0
 10
2.96632
 20
0.432281
 11
3.45493
 21
0.24472
  0
LINE
  8
0
 10
3.45493
 20
0.24472
 11
3.96045
 21
0.109268
  0
LINE
  8
0
 10
3.96045
 20
0.109268
 11
4.47737
 21
0.0274048
  0
LINE
  8
0
 10
4.47737
 20
0.0274048
 11
5
 21
0
  0
LINE
  8
0
 10
5
 20
0
 11
85
 21
0
  0
LINE
  8
0
 10
85
 20
0
 11
85.5226
 21
0.0274048
  0
LINE
  8
0
 10
85.5226
 20
0.0274048
 11
86.0396
 21
0.109268
  0
LINE
  8
0
 10
86.0396
 20
0.109268
 11
86.5451
 21
0.24472
  0
LINE
  8
0
 10
86.5451
 20
0.24472
 11
87.0337
 21
0.432281
  0
LINE
  8
0
 10
87.0337
 20
0.432281
 11
87.5
 21
0.669876
  0
LINE
  8
0
 10
87.5
 20
0.669876
 11
87.9389
 21
0.954926
  0
LINE
  8
0
 10
87.9389
 20
0.954926
 11
88.3456
 21
1.28429
  0
LINE
  8
0
 10
88.3456
 20
1.28429
 11
88.7157
 21
1.65436
  0
LINE
  8
0
 10
88.7157
 20
1.65436
 11
89.0451
 21
2.06108
  0
LINE
  8
0
 10
89.0451
 20
2.06108
 11
89.3301
 21
2.5
  0
LINE
  8
0
 10
89.3301
 20
2.5
 11
89.5677
 21
2.96632
  0
LINE
  8
0
 10
89.5677
 20
2.96632
 11
89.7553
 21
3.45493
  0
LINE
  8
0
 10
89.7553
 20
3.45493
 11
89.8907
 21
3.96045
  0
LINE
  8
0
 10
89.8907
 20
3.96045
 11
89.9726
 21
4.47737
  0
LINE
  8
0
 10
89.9726
 20
4.47737
 11
90
 21
5
  0
LINE
  8
0
 10
90
 20
5
 11
90
 21
59
  0
LINE
  8
0
 10
90
 20
59
 11
89.9726
 21
59.5226
  0
LINE
  8
0
 10
89.9726
 20
59.5226
 11
89.8907
 21
60.0396
  0
LINE
  8
0
 10
89.8907
 20
60.0396
 11
89.7553
 21
60.5451
  0
ENDSEC
  0
SECTION
  2
OBJECTS
  0
DICTIONARY
  0
ENDSEC
  0
EOF
